<?xml version="1.0"?>
<svg xmlns="http://www.w3.org/2000/svg" fill="#333333" width="512" height="512" viewBox="0 0 512 512"><g><path d="M376,8H136a32.042,32.042,0,0,0-32,32V472a32.042,32.042,0,0,0,32,32H376a32.042,32.042,0,0,0,32-32V40A32.042,32.042,0,0,0,376,8ZM309.75,24l-4,16H206.06l-4.5-16ZM392,472a16.021,16.021,0,0,1-16,16H136a16.021,16.021,0,0,1-16-16V40a16.021,16.021,0,0,1,16-16h48.94l7.36,26.17A8,8,0,0,0,200,56H312a8,8,0,0,0,7.76-6.06L326.25,24H376a16.021,16.021,0,0,1,16,16Z"/><path d="M200,456H144a8,8,0,0,0,0,16h56a8,8,0,0,0,0-16Z"/><path d="M232,456h-8a8,8,0,0,0,0,16h8a8,8,0,0,0,0-16Z"/><path d="M303.59,269.47A8,8,0,0,0,296,264V232a32.012,32.012,0,0,0-16-27.695V200a24,24,0,0,0-48,0v4.305A32.012,32.012,0,0,0,216,232v32a8,8,0,0,0-7.59,5.47l-8,24A8,8,0,0,0,208,304h24a24,24,0,0,0,48,0h24a8,8,0,0,0,7.59-10.53ZM256,192a8.009,8.009,0,0,1,8,8H248A8.009,8.009,0,0,1,256,192Zm-24,40a16.019,16.019,0,0,1,16-16h16a16.019,16.019,0,0,1,16,16v32H232Zm24,80a8.009,8.009,0,0,1-8-8h16A8.009,8.009,0,0,1,256,312Zm16-24H219.1l2.666-8h68.468l2.666,8Z"/><path d="M256,128A128,128,0,1,0,384,256,128.144,128.144,0,0,0,256,128Zm0,240A112,112,0,1,1,368,256,112.123,112.123,0,0,1,256,368Z"/><path d="M422.829,199.258a8,8,0,0,0-5.452,9.913,168.868,168.868,0,0,1,0,93.658,8,8,0,1,0,15.365,4.461,184.854,184.854,0,0,0,0-102.58A8,8,0,0,0,422.829,199.258Z"/><path d="M457.8,178.812a8,8,0,1,0-14.944,5.716,200.919,200.919,0,0,1,0,142.944,8,8,0,1,0,14.944,5.716,216.917,216.917,0,0,0,0-154.376Z"/><path d="M482.079,153.913a8,8,0,0,0-14.578,6.594,232.673,232.673,0,0,1,0,190.986,8,8,0,1,0,14.578,6.594,248.672,248.672,0,0,0,0-204.174Z"/><path d="M89.23,199.258a8,8,0,0,0-9.913,5.452,184.879,184.879,0,0,0,0,102.58,8,8,0,0,0,15.366-4.461,168.868,168.868,0,0,1,0-93.658A8,8,0,0,0,89.23,199.258Z"/><path d="M64.588,174.2a8,8,0,0,0-10.33,4.614,216.917,216.917,0,0,0,0,154.376A8,8,0,1,0,69.2,327.472a200.919,200.919,0,0,1,0-142.944A8,8,0,0,0,64.588,174.2Z"/><path d="M24.06,256a230.123,230.123,0,0,1,20.5-95.493,8,8,0,0,0-14.578-6.594,248.672,248.672,0,0,0,0,204.174,8,8,0,1,0,14.578-6.594A230.123,230.123,0,0,1,24.06,256Z"/></g></svg>
