<svg id="Capa_1" enable-background="new 0 0 512 512" height="512" viewBox="0 0 512 512" width="512" xmlns="http://www.w3.org/2000/svg" fill="#333333"><g><path d="m256 296c22.056 0 40-17.944 40-40s-17.944-40-40-40-40 17.944-40 40 17.944 40 40 40zm0-60c11.028 0 20 8.972 20 20s-8.972 20-20 20-20-8.972-20-20 8.972-20 20-20z"/><path d="m10 110c5.523 0 10-4.477 10-10 0-44.112 35.888-80 80-80 5.523 0 10-4.477 10-10s-4.477-10-10-10c-55.14 0-100 44.86-100 100 0 5.523 4.477 10 10 10z"/><path d="m100 60c-22.056 0-40 17.944-40 40 0 5.523 4.477 10 10 10s10-4.477 10-10c0-11.028 8.972-20 20-20 5.523 0 10-4.477 10-10s-4.477-10-10-10z"/><path d="m402 502c0 5.523 4.477 10 10 10 55.14 0 100-44.86 100-100 0-5.523-4.477-10-10-10s-10 4.477-10 10c0 44.112-35.888 80-80 80-5.523 0-10 4.477-10 10z"/><path d="m432 412c0 11.028-8.972 20-20 20-5.523 0-10 4.477-10 10s4.477 10 10 10c22.056 0 40-17.944 40-40 0-5.523-4.477-10-10-10s-10 4.477-10 10z"/><path d="m156 487.648v14.352c0 5.523 4.477 10 10 10h45c5.523 0 10-4.477 10-10s-4.477-10-10-10h-35v-63.649c24.947 11.572 52.285 17.649 80 17.649s55.052-6.076 80-17.649v63.649h-35c-5.523 0-10 4.477-10 10s4.477 10 10 10h45c5.523 0 10-4.477 10-10v-84.422c54.67-33.917 90-94.12 90-161.578 0-104.766-85.234-190-190-190-90.532 0-167.229 63.629-185.775 150h-58.355c-5.039 0-9.291 3.749-9.921 8.748-1.293 10.25-1.949 20.764-1.949 31.252 0 21.129 2.66 42.157 7.908 62.501 19.786 76.608 74.894 139.36 148.092 169.147zm-125.104-161.648h48.435c15.01 37.868 41.921 70.021 76.669 91.572v48.327c-59.639-26.777-105.218-77.722-125.104-139.899zm225.104-240c93.738 0 170 76.262 170 170 0 92.462-74.917 170-170 170-93.889 0-170-76.103-170-170 0-93.894 75.389-170 170-170zm-235.138 149.99h46.182c-.693 6.637-1.044 13.328-1.044 20.01 0 17.019 2.245 33.779 6.664 50h-47.188c-3.634-16.359-5.476-33.142-5.476-50 0-6.688.289-13.384.862-20.01z"/><circle cx="256" cy="502" r="10"/></g></svg>