<svg id="Layer_3" enable-background="new 0 0 64 64" height="512" viewBox="0 0 64 64" width="512" xmlns="http://www.w3.org/2000/svg" fill="#333333"><g><path d="m10 51h10c.553 0 1-.448 1-1v-12c0-.552-.447-1-1-1h-10c-.553 0-1 .448-1 1v12c0 .552.447 1 1 1zm1-2v-2h8v2zm8-10v6h-8v-6z"/><path d="m44 51h10c.553 0 1-.448 1-1v-12c0-.552-.447-1-1-1h-10c-.553 0-1 .448-1 1v12c0 .552.447 1 1 1zm1-2v-2h8v2zm8-10v6h-8v-6z"/><path d="m27 49h2v4h-2z"/><path d="m58 15c0-4.411-3.589-8-8-8s-8 3.589-8 8 3.589 8 8 8 8-3.589 8-8zm-14 0c0-3.309 2.691-6 6-6s6 2.691 6 6-2.691 6-6 6-6-2.691-6-6z"/><path d="m52.293 12.293-3.293 3.293-1.293-1.293-1.414 1.414 2 2c.195.195.451.293.707.293s.512-.098.707-.293l4-4z"/><path d="m62.592 33.193-7.81-5.727c5.212-5.063 8.218-12.047 8.218-19.466 0-.379-.214-.725-.553-.895l-12-6c-.281-.141-.613-.141-.895 0l-12 6c-.338.17-.552.516-.552.895 0 2.442.336 4.834.958 7.129l-5.366-3.935c-.354-.258-.83-.258-1.184 0l-18.408 13.499v-2.693c0-.552-.447-1-1-1h-6c-.553 0-1 .448-1 1v8.559l-3.592 2.634c-.348.256-.493.707-.358 1.118s.517.689.95.689h3v22h-1c-.553 0-1 .448-1 1v4c0 .552.447 1 1 1h56c.553 0 1-.448 1-1v-4c0-.552-.447-1-1-1h-1v-22h3c.433 0 .815-.278.95-.689s-.01-.862-.358-1.118zm-12.592-30.075 10.992 5.496c-.196 8.115-4.269 15.607-10.992 20.183-6.723-4.576-10.796-12.068-10.992-20.183zm-18 10.122 7.094 5.203c2.03 4.877 5.461 9.129 10 12.155l.352.234c.167.112.361.168.554.168s.387-.056.555-.168l.352-.234c.822-.548 1.602-1.144 2.35-1.769l5.688 4.171h-53.89zm-25 9.76h4v3.159l-4 2.933zm52 38h-54v-2h54zm-20-4h-14v-9c0-3.86 3.141-7 7-7s7 3.14 7 7zm18 0h-16v-9c0-4.962-4.037-9-9-9s-9 4.038-9 9v9h-16v-22h50z"/><path d="m4.879 16.707-.586.586 1.414 1.414.586-.586c.713-.712 1.699-1.121 2.707-1.121s1.994.409 2.707 1.121l.586.586 1.414-1.414-.586-.586c-1.085-1.085-2.587-1.707-4.121-1.707s-3.036.622-4.121 1.707z"/><path d="m2.879 15.536c1.635-1.636 3.809-2.536 6.121-2.536s4.486.9 6.122 2.537l.172.171 1.412-1.416-.171-.17c-2.013-2.014-4.688-3.122-7.535-3.122s-5.522 1.108-7.534 3.121l-.172.171 1.412 1.416z"/></g></svg>