<svg height="512" viewBox="0 0 512 512" width="512" xmlns="http://www.w3.org/2000/svg" fill="#333333"><g id="Outline"><path d="m408 16h-304a8 8 0 0 0 -8 8v424a8 8 0 0 0 2.878 6.146c2.051 1.709 51.441 41.854 157.122 41.854s155.071-40.145 157.122-41.854a8 8 0 0 0 2.878-6.146v-424a8 8 0 0 0 -8-8zm-8 427.979c-11.535 8.027-57.949 36.021-144 36.021-85.62 0-132.4-28.045-144-36.043v-411.957h288z"/><path d="m160 216h192a24.027 24.027 0 0 0 24-24v-112a24.027 24.027 0 0 0 -24-24h-192a24.027 24.027 0 0 0 -24 24v112a24.027 24.027 0 0 0 24 24zm-8-136a8.009 8.009 0 0 1 8-8h192a8.009 8.009 0 0 1 8 8v112a8.009 8.009 0 0 1 -8 8h-192a8.009 8.009 0 0 1 -8-8z"/><path d="m168 240h16v48h-16z"/><path d="m200 240h16v48h-16z"/><path d="m232 240h16v48h-16z"/><path d="m264 240h16v48h-16z"/><path d="m296 240h16v48h-16z"/><path d="m328 240h16v48h-16z"/><path d="m320 312h-128a24.028 24.028 0 0 0 -24 24v48a24.028 24.028 0 0 0 24 24h128a24.028 24.028 0 0 0 24-24v-48a24.028 24.028 0 0 0 -24-24zm8 72a8.009 8.009 0 0 1 -8 8h-128a8.009 8.009 0 0 1 -8-8v-48a8.009 8.009 0 0 1 8-8h128a8.009 8.009 0 0 1 8 8z"/><path d="m200 352h16v16h-16z"/><path d="m232 352h16v16h-16z"/><path d="m264 352h16v16h-16z"/><path d="m296 352h16v16h-16z"/><path d="m248 432h16v24h-16z"/><path d="m224 128h64v16h-64z" transform="matrix(.707 -.707 .707 .707 -21.186 220.853)"/><path d="m262.627 150.627h32v16h-32z" transform="matrix(.707 -.707 .707 .707 -30.558 243.48)"/><path d="m217.373 105.373h32v16h-32z" transform="matrix(.707 -.707 .707 .707 -11.813 198.226)"/></g></svg>