<svg height="473pt" viewBox="-30 0 473 473.85605" width="473pt" xmlns="http://www.w3.org/2000/svg" fill="#333333"><path d="m101.148438 422.367188c49.414062 36.167968 98.078124 50.648437 100.128906 51.246093 1.082031.316407 2.230468.324219 3.3125.015625 2.117187-.597656 52.445312-15.0625 103.566406-51.199218 30.167969-21.328126 54.230469-45.785157 71.527344-72.699219 21.601562-33.378907 32.984375-72.34375 32.746094-112.101563v-116.023437c0-2.394531-1.429688-4.5625-3.628907-5.507813l-1.316406-.566406c-70.109375-30.167969-136.390625-68.546875-197.457031-114.332031-2.132813-1.597657-5.066406-1.597657-7.199219 0-61.066406 45.785156-127.347656 84.164062-197.457031 114.328125l-1.316406.566406c-2.199219.945312-3.628907 3.117188-3.625 5.511719v116.023437c0 40.539063 10.632812 78.226563 31.609374 112.015625 16.707032 26.921875 39.960938 51.382813 69.109376 72.722657zm-88.71875-296.8125c68.75-29.792969 133.84375-67.394532 194-112.066407 60.152343 44.671875 125.246093 82.273438 194 112.066407v112.074218c.226562 37.390625-10.457032 74.035156-30.738282 105.445313-16.410156 25.589843-39.347656 48.921875-68.179687 69.351562-44.390625 31.453125-89.402344 46.332031-98.519531 49.152344-8.914063-2.859375-52.277344-17.730469-95.042969-49.105469-27.832031-20.417968-49.976563-43.746094-65.820313-69.324218-19.707031-31.820313-29.699218-67.320313-29.699218-105.519532zm0 0"/><path d="m116.890625 394.429688c41.902344 30.664062 83.183594 42.949218 84.921875 43.457031 1.082031.316406 2.230469.324219 3.316406.015625 1.796875-.507813 44.484375-12.777344 87.824219-43.417969 25.601563-18.097656 46.019531-38.855469 60.699219-61.699219 18.355468-28.363281 28.027344-61.46875 27.824218-95.253906v-98.082031c0-2.398438-1.425781-4.5625-3.628906-5.511719l-1.109375-.476562c-59.191406-25.46875-115.152343-57.875-166.710937-96.53125-2.132813-1.601563-5.066406-1.601563-7.199219 0-51.558594 38.65625-107.519531 71.058593-166.714844 96.527343l-1.109375.476563c-2.203125.949218-3.628906 3.117187-3.628906 5.511718v98.074219c0 34.441407 9.035156 66.464844 26.859375 95.175781 14.183594 22.855469 33.921875 43.625 58.65625 61.734376zm-73.515625-251.035157c57.761719-25.078125 112.464844-56.675781 163.054688-94.179687 50.585937 37.503906 105.292968 69.101562 163.050781 94.183594v94.125c.191406 31.414062-8.777344 62.207031-25.816407 88.605468-3.683593 5.730469-7.6875 11.25-11.992187 16.53125v-.753906c0-3.3125-2.6875-6-6-6s-6 2.6875-6 6v12.230469c0 .585937.085937 1.167969.257813 1.730469-10.304688 10.550781-21.5625 20.132812-33.625 28.617187-25.410157 17.78125-53.300782 31.71875-82.777344 41.363281-28.535156-9.691406-55.445313-23.617187-79.835938-41.320312-11.226562-8.1875-21.710937-17.351563-31.320312-27.386719.53125-.914063.8125-1.953125.8125-3.007813v-12.230468c0-3.3125-2.6875-6-6-6s-6 2.6875-6 6v2.429687c-4.648438-5.78125-8.945313-11.835937-12.863282-18.136719-16.554687-26.738281-24.945312-56.574218-24.945312-88.675781zm0 0"/><path d="m206.429688 335.90625c-3.316407 0-6 2.6875-6 6v12.230469c0 3.3125 2.683593 6 6 6 3.3125 0 6-2.6875 6-6v-12.230469c0-3.3125-2.6875-6-6-6zm0 0"/><path d="m246.175781 335.90625c-3.3125 0-6 2.6875-6 6v12.230469c0 3.3125 2.6875 6 6 6s6-2.6875 6-6v-12.230469c0-3.3125-2.6875-6-6-6zm0 0"/><path d="m285.929688 335.90625c-3.316407 0-6 2.6875-6 6v12.230469c0 3.3125 2.683593 6 6 6 3.3125 0 6-2.6875 6-6v-12.230469c0-3.3125-2.6875-6-6-6zm0 0"/><path d="m166.679688 335.90625c-3.3125 0-6 2.6875-6 6v12.230469c0 3.3125 2.6875 6 6 6s6-2.6875 6-6v-12.230469c0-3.3125-2.6875-6-6-6zm0 0"/><path d="m126.929688 335.90625c-3.316407 0-6 2.6875-6 6v12.230469c0 3.3125 2.683593 6 6 6 3.3125 0 6-2.6875 6-6v-12.230469c0-3.3125-2.6875-6-6-6zm0 0"/><path d="m110.953125 209.585938c-.117187.273437-.21875.558593-.296875.847656-.015625.050781-.027344.101562-.039062.148437-.074219.292969-.125.589844-.15625.886719v.09375c-.011719.15625-.023438.3125-.023438.472656 0 .121094.011719.242188.015625.359375 0 .050781 0 .101563.011719.152344.023437.292969.070312.585937.140625.871094.007812.046875.023437.09375.035156.140625.074219.292968.171875.582031.289063.859375.011718.019531.019531.039062.03125.058593.125.277344.269531.546876.433593.800782.015625.023437.027344.046875.042969.074218.175781.253907.367188.5.578125.726563.019531.023437.035156.050781.054687.070313l90 95.457031c.078126.082031.164063.15625.246094.234375.046875.046875.097656.097656.148438.140625.1875.167969.390625.324219.597656.46875.050781.03125.101562.0625.15625.097656.175781.113281.359375.21875.550781.3125.058594.027344.113281.058594.171875.085937.234375.109376.476563.199219.722656.277344.039063.011719.082032.019532.121094.03125.214844.0625.429688.109375.644532.144532.078124.015624.152343.027343.226562.035156.238281.035156.480469.050781.722656.054687h.058594c.199219 0 .398438-.011719.597656-.03125.03125 0 .058594-.007812.089844-.011719.164062-.019531.328125-.042968.492188-.078124.0625-.011719.125-.03125.191406-.046876.125-.027343.25-.058593.371094-.097656.085937-.027344.164062-.058594.246093-.085937.082031-.027344.15625-.050781.234375-.082031.027344-.007813.050782-.023438.074219-.03125.09375-.039063.183594-.082032.273437-.125.089844-.042969.191407-.09375.285157-.140626.074219-.042968.144531-.085937.21875-.128906.097656-.0625.207031-.125.304687-.195312.0625-.039063.117188-.082032.175782-.125.105468-.078125.210937-.15625.308593-.242188.054688-.042968.101563-.089844.152344-.136718.101563-.089844.195313-.179688.289063-.273438.015624-.019531.039062-.035156.054687-.054688l90-95.453124c.023437-.023438.035156-.050782.058594-.074219.207031-.226563.402343-.46875.574219-.726563.015624-.023437.03125-.046875.042968-.074218.167969-.253907.3125-.519532.4375-.796876.007813-.023437.019532-.039062.027344-.0625.121094-.277343.214844-.566406.292969-.859374.011719-.046876.023437-.09375.035156-.140626.070313-.285156.117187-.578124.140625-.871093 0-.050781 0-.101563.007812-.148438.007813-.121093.019532-.238281.019532-.363281 0-.160156-.011719-.316406-.027344-.472656 0-.03125 0-.0625 0-.09375-.027344-.296875-.078125-.59375-.152344-.886719-.015625-.046875-.027344-.097656-.039062-.148437-.078125-.289063-.179688-.570313-.300782-.847657-.015624-.035156-.035156-.074219-.054687-.113281-.132813-.285156-.289063-.5625-.46875-.824219l-.007813-.015625-31.46875-45.671875c-1.121093-1.625-2.96875-2.597656-4.941406-2.597656h-117.074218c-1.976563 0-3.824219.972656-4.941407 2.597656l-31.46875 45.671875-.011719.015625c-.175781.261719-.332031.535157-.464843.824219-.019531.042969-.039063.078125-.058594.117188zm53.230469 8.449218 24.945312 62.359375-58.800781-62.359375zm65.363281-45.671875 7.992187 33.671875h-61.824218l7.421875-33.671875zm52.980469 45.671875-58.761719 62.328125 25.148437-62.328125zm-46.554688 0-29.558594 73.253906-29.300781-73.253906zm49.039063-12h-35.140625l-7.988282-33.671875h19.925782zm-133.960938-33.671875h19.796875l-7.417968 33.671875h-35.582032zm0 0"/></svg>