<svg id="Layer_35" enable-background="new 0 0 64 64" height="512" viewBox="0 0 64 64" width="512" xmlns="http://www.w3.org/2000/svg" xmlns:xlink="http://www.w3.org/1999/xlink"><linearGradient id="SVGID_1_" gradientUnits="userSpaceOnUse" x1="32" x2="32" y1="62.379" y2="1"><stop offset="0" stop-color="#9f2fff"/><stop offset="1" stop-color="#0bb1d3"/></linearGradient><path d="m41.289 26.605-.578-1.914c.628-.189 1.264-.404 1.891-.64l.701 1.873c-.667.251-1.345.48-2.014.681zm-4.289 3.675v-2.688c.742-.119 1.487-.265 2.226-.435l-.451-1.949c-.964.224-1.941.4-2.904.527l-.871.115v4.431c0 .268.006.535.02.801l1.998-.102c-.012-.233-.018-.465-.018-.7zm-12-11.28c0 3.309-2.691 6-6 6s-6-2.691-6-6 2.691-6 6-6 6 2.691 6 6zm-2 0c0-2.206-1.794-4-4-4s-4 1.794-4 4 1.794 4 4 4 4-1.794 4-4zm35.006 2.999.994.006v8.275c0 8.677-5.489 16.495-13.659 19.453l-.341.123-.341-.123c-8.17-2.958-13.659-10.776-13.659-19.453v-8.275l.994-.006c4.369-.026 8.702-1.137 12.53-3.211l.477-.259.477.259c3.83 2.074 8.162 3.185 12.528 3.211zm-1.006 1.977c-4.176-.171-8.294-1.261-11.999-3.177-3.704 1.916-7.823 3.006-12.001 3.177v6.305c0 7.717 4.807 14.682 12 17.445 7.193-2.764 12-9.729 12-17.445zm-14 9.61 8-8 4.414 4.414-12.414 12.414-6.414-6.414 4.414-4.414zm8-5.172-8 8-2-2-1.586 1.586 3.586 3.586 9.586-9.586zm7.171-10.414h4.829v12.28c0 5.438-1.823 10.592-4.95 14.77l3.364 12.335-4.938-1.235-3.737 6.229-3.353-10.059c-1.304.659-2.671 1.217-4.104 1.639l-.282.083-.282-.083c-1.433-.422-2.8-.98-4.104-1.639l-3.353 10.059-3.737-6.229-4.938 1.235 3.364-12.335c-2.547-3.402-4.208-7.457-4.745-11.78l-.461-.285c-1.057.586-2.173 1.049-3.332 1.381l-.62 2.634h-7.584l-.62-2.635c-1.159-.332-2.275-.795-3.332-1.381l-2.303 1.426-5.363-5.363 1.426-2.303c-.586-1.057-1.049-2.173-1.381-3.332l-2.635-.62v-7.584l2.635-.62c.332-1.159.795-2.275 1.381-3.332l-1.426-2.303 5.363-5.363 2.303 1.426c1.057-.586 2.173-1.049 3.332-1.381l.62-2.635h7.584l.62 2.635c1.159.332 2.275.795 3.332 1.381l2.303-1.426 5.363 5.363-1.426 2.303c.586 1.057 1.049 2.173 1.381 3.332l2.635.62v2.191c2.627-.614 5.134-1.69 7.411-3.209l.551-.367.587.341c3.777 2.519 8.128 3.836 12.622 3.836zm-31.149 12.804c-.004-.175-.022-.348-.022-.524v-2.349c-2.18 1.95-5.02 3.069-8 3.069-6.617 0-12-5.383-12-12s5.383-12 12-12c6.28 0 11.438 4.85 11.949 11h.88c1.068 0 2.126-.08 3.171-.227v-.982l-2.273-.535-.146-.596c-.336-1.376-.881-2.688-1.617-3.903l-.318-.523 1.229-1.986-3.123-3.123-1.986 1.229-.523-.318c-1.215-.736-2.527-1.281-3.903-1.617l-.596-.146-.536-2.273h-4.416l-.535 2.273-.596.146c-1.376.336-2.688.881-3.903 1.617l-.523.318-1.987-1.229-3.123 3.123 1.229 1.986-.318.523c-.736 1.215-1.281 2.527-1.617 3.903l-.146.596-2.273.536v4.416l2.273.535.146.596c.336 1.376.881 2.688 1.617 3.903l.318.523-1.229 1.986 3.123 3.123 1.986-1.229.523.318c1.215.736 2.527 1.281 3.903 1.617l.596.146.536 2.274h4.416l.535-2.273.596-.146c1.376-.336 2.688-.881 3.903-1.617l.523-.318zm1.927-12.804c-.503-5.046-4.773-9-9.949-9-5.514 0-10 4.486-10 10s4.486 10 10 10c3.151 0 6.113-1.503 8-4.021v-6.979zm9.889 33.326c-1.984-1.22-3.772-2.708-5.324-4.409l-2.099 7.698 3.062-.765 2.263 3.771zm17.649-4.408c-1.552 1.701-3.34 3.189-5.324 4.409l2.098 6.295 2.263-3.771 3.062.765zm4.513-26.918h-2.829c-4.683 0-9.224-1.314-13.172-3.808-3.967 2.499-8.497 3.808-13.17 3.808h-2.829v10.28c0 9.894 6.564 18.765 16 21.676 9.436-2.911 16-11.782 16-21.676z" fill="url(#SVGID_1_)"/></svg>