<svg id="Layer_5" enable-background="new 0 0 64 64" height="512" viewBox="0 0 64 64" width="512" xmlns="http://www.w3.org/2000/svg" xmlns:xlink="http://www.w3.org/1999/xlink"><linearGradient id="SVGID_1_" gradientUnits="userSpaceOnUse" x1="32" x2="32" y1="63" y2="1"><stop offset="0" stop-color="#9f2fff"/><stop offset="1" stop-color="#0bb1d3"/></linearGradient><path d="m17.605 5.767-2.605 1.861v-2.628h-6v6.914l-4.581 3.272 1.162 1.627 1.419-1.013v11.2h3v3c0 1.654 1.346 3 3 3h1v11.414l1.586 1.586-2 2 2 2-1.586 1.586v2.949l7.127 4.751 4.873-4.872v-21.414h1c1.654 0 3-1.346 3-3v-3h3v-11.2l1.419 1.013 1.162-1.627-13.186-9.419c-1.406-1.004-3.384-1.004-4.79 0zm-6.605 1.233h2v2.057l-2 1.429zm5.414 41 2-2-2.414-2.414v-12.586h-3c-.551 0-1-.449-1-1v-3h8v29.132l-4-2.667v-1.051l2.414-2.414zm4.586-23v-4h4v4zm4-6h-4v-4h4zm-6 0h-4v-4h4zm-4 2h4v4h-4zm13 9c0 .551-.449 1-1 1h-3v22.586l-2 2v-28.586h6zm3-5h-4v-12h-14v12h-4v-10.629l9.767-6.976c.724-.517 1.742-.517 2.466 0l9.767 6.976zm29-24h-56c-1.654 0-3 1.346-3 3v56c0 1.654 1.346 3 3 3h56c1.654 0 3-1.346 3-3v-56c0-1.654-1.346-3-3-3zm1 59c0 .551-.449 1-1 1h-56c-.551 0-1-.449-1-1v-56c0-.551.449-1 1-1h56c.551 0 1 .449 1 1zm-24-45h22v-10h-22zm2-8h18v6h-18zm-2 16h6v-6h-6zm2-4h2v2h-2zm6 4h6v-6h-6zm2-4h2v2h-2zm6 4h6v-6h-6zm2-4h2v2h-2zm-18 12h6v-6h-6zm2-4h2v2h-2zm6 4h6v-6h-6zm2-4h2v2h-2zm6 4h6v-6h-6zm2-4h2v2h-2zm-18 12h6v-6h-6zm2-4h2v2h-2zm6 4h6v-6h-6zm2-4h2v2h-2zm6 4h6v-6h-6zm2-4h2v2h-2zm2 18.184v-12.184h-2v12.184c-1.161.414-2 1.514-2 2.816 0 1.654 1.346 3 3 3s3-1.346 3-3c0-1.302-.839-2.402-2-2.816zm-1 3.816c-.551 0-1-.449-1-1s.449-1 1-1 1 .449 1 1-.449 1-1 1zm-7-11.816v-4.184h-2v4.184c-1.161.414-2 1.514-2 2.816s.839 2.402 2 2.816v8.184h2v-8.184c1.161-.414 2-1.514 2-2.816s-.839-2.402-2-2.816zm-1 3.816c-.551 0-1-.449-1-1s.449-1 1-1 1 .449 1 1-.449 1-1 1zm-7 2.184v-10.184h-2v10.184c-1.161.414-2 1.514-2 2.816s.839 2.402 2 2.816v2.184h2v-2.184c1.161-.414 2-1.514 2-2.816s-.839-2.402-2-2.816zm-1 3.816c-.551 0-1-.449-1-1s.449-1 1-1 1 .449 1 1-.449 1-1 1zm-35-6h2v2h-2zm0 4h2v2h-2zm0 4h2v2h-2z" fill="url(#SVGID_1_)"/></svg>