<svg height="496pt" viewBox="-72 0 496 496" width="496pt" xmlns="http://www.w3.org/2000/svg" xmlns:xlink="http://www.w3.org/1999/xlink"><linearGradient id="a" gradientUnits="userSpaceOnUse" x1="176" x2="176" y1="496" y2="0"><stop offset="0" stop-color="#9f2fff"/><stop offset="1" stop-color="#0bb1d3"/></linearGradient><path d="m259.953125 93.59375-15.257813 4.8125c-9.503906-30.148438-37.109374-50.40625-68.695312-50.40625v-16c38.609375 0 72.34375 24.753906 83.953125 61.59375zm-139.953125 227.878906v-21.648437c-13.6875-11.320313-23.824219-26.726563-28.710938-44.304688-19.816406-2.359375-35.289062-19.078125-35.289062-39.519531v-56c-8.824219 0-16-7.175781-16-16v-16c0-8.824219 7.175781-16 16-16h.40625c4.144531-62.441406 56.128906-112 119.59375-112s115.449219 49.558594 119.59375 112h.40625c8.824219 0 16 7.175781 16 16v16c0 8.824219-7.175781 16-16 16v56c0 20.441406-15.472656 37.160156-35.289062 39.519531-4.886719 17.578125-15.023438 32.984375-28.710938 44.304688v21.648437c2.511719-.898437 5.183594-1.472656 8-1.472656h16c12.761719 0 23.128906 10.039062 23.863281 22.617188l30.570313 8.152343c24.46875 6.527344 41.566406 28.773438 41.566406 54.109375v91.121094h-352v-91.121094c0-25.335937 17.097656-47.582031 41.566406-54.109375l30.570313-8.152343c.734375-12.578126 11.101562-22.617188 23.863281-22.617188h16c2.816406 0 5.488281.574219 8 1.472656zm-32 38.527344v8h32v-24c0-4.40625-3.59375-8-8-8h-16c-4.40625 0-8 3.59375-8 8zm200 67.222656c-5.558594-5.984375-10.175781-12.613281-13.863281-19.6875-4.402344 5.136719-10.855469 8.464844-18.136719 8.464844h-16c-13.230469 0-24-10.769531-24-24v-2.375c-12.183594 6.726562-25.9375 10.375-40 10.375-14.054688 0-27.816406-3.648438-40-10.375v2.375c0 13.230469-10.769531 24-24 24h-16c-7.28125 0-13.734375-3.328125-18.136719-8.464844-3.6875 7.074219-8.304687 13.703125-13.863281 19.6875v52.777344h16v-48h80v48h32v-48h80v48h16zm-32 20.777344h-48v32h48zm-112 0h-48v32h48zm-56-56c0 4.40625 3.59375 8 8 8h16c4.40625 0 8-3.59375 8-8v-8h-32zm176-24h-32v24c0 4.40625 3.59375 8 8 8h16c4.40625 0 8-3.59375 8-8zm-48-13.59375c-4.632812 3.5625-9.648438 6.503906-14.976562 8.691406l3.609374 14.421875c4-1.894531 7.800782-4.230469 11.375-6.910156v-16.203125zm-40 13.59375c-3.230469 0-6.414062-.3125-9.558594-.761719l-3.839844 15.347657c4.390626.894531 8.871094 1.414062 13.398438 1.414062s9.007812-.519531 13.398438-1.414062l-3.839844-15.347657c-3.144532.449219-6.328125.761719-9.558594.761719zm-25.023438-4.902344c-5.335937-2.1875-10.34375-5.136718-14.976562-8.691406v16.210938c3.574219 2.679687 7.367188 5.007812 11.375 6.910156zm-134.976562 116.902344h32v-59.3125l2.34375-2.34375c13.96875-13.96875 21.65625-32.535156 21.65625-52.289062v-6.839844l-26.304688 7.015625c-17.488281 4.65625-29.695312 20.554687-29.695312 38.648437zm290.304688-113.769531-26.304688-7.015625v6.839844c0 19.753906 7.6875 38.320312 21.65625 52.289062l2.34375 2.34375v59.3125h32v-75.121094c0-18.09375-12.207031-33.992187-29.695312-38.648437zm-74.304688-22.230469v8h32v-8c0-4.40625-3.59375-8-8-8h-16c-4.40625 0-8 3.59375-8 8zm-128-184v32c0 4.40625 3.59375 8 8 8h25.367188c2.136718 0 4.152343-.832031 5.664062-2.34375l3.3125-3.3125c6.664062-6.671875 15.535156-10.34375 24.96875-10.34375h9.375c9.433594 0 18.304688 3.671875 24.96875 10.34375l3.3125 3.3125c1.511719 1.511719 3.527344 2.34375 5.664062 2.34375h25.367188c4.40625 0 8-3.59375 8-8v-32zm0 70.9375 39.136719-4.890625c21.75-2.71875 43.984375-2.71875 65.734375 0l39.128906 4.890625v-16.417969c-2.511719.90625-5.183594 1.480469-8 1.480469h-25.367188c-6.410156 0-12.441406-2.496094-16.976562-7.03125l-3.3125-3.3125c-3.589844-3.59375-8.574219-5.65625-13.65625-5.65625h-9.375c-5.082031 0-10.066406 2.0625-13.65625 5.65625l-3.3125 3.3125c-4.527344 4.535156-10.558594 7.03125-16.976562 7.03125h-25.367188c-2.816406 0-5.488281-.574219-8-1.472656zm176-14.9375c0-10.414062-6.710938-19.214844-16-22.527344v38.527344c0 2.238281-.167969 4.433594-.335938 6.632812 9.464844-3.21875 16.335938-12.097656 16.335938-22.632812zm0-56h-16v16.808594c5.945312 1.214844 11.328125 3.855468 16 7.390625zm-207.59375-48h207.195312c-4.113281-53.609375-48.953124-96-103.601562-96s-99.488281 42.390625-103.59375 96zm-16.40625 32h240.007812l-.007812-16h-240zm16 16v24.207031c4.671875-3.535156 10.054688-6.183593 16-7.390625v-16.816406zm16.335938 78.632812c-.167969-2.199218-.335938-4.394531-.335938-6.632812v-38.527344c-9.289062 3.3125-16 12.113282-16 22.527344 0 10.535156 6.871094 19.414062 16.335938 22.632812zm87.664062 65.367188c34.601562 0 63.566406-24.542969 70.441406-57.136719l-39.5625-4.941406c-20.4375-2.546875-41.328125-2.546875-61.765625 0l-39.554687 4.941406c6.875 32.59375 35.839844 57.136719 70.441406 57.136719zm-40 6.289062v22.398438l4.6875 4.6875c9.433594 9.433594 21.976562 14.625 35.3125 14.625s25.878906-5.191406 35.3125-14.625l4.6875-4.6875v-22.398438c-12.015625 6.160157-25.59375 9.710938-40 9.710938s-27.984375-3.550781-40-9.710938zm0 0" fill="url(#a)"/></svg>