<svg id="Layer_35" enable-background="new 0 0 64 64" height="512" viewBox="0 0 64 64" width="512" xmlns="http://www.w3.org/2000/svg" xmlns:xlink="http://www.w3.org/1999/xlink"><linearGradient id="SVGID_1_" gradientUnits="userSpaceOnUse" x1="32" x2="32" y1="63" y2="1"><stop offset="0" stop-color="#9f2fff"/><stop offset="1" stop-color="#0bb1d3"/></linearGradient><path d="m58 13h-24.189c-.242-.596-.513-1.18-.826-1.744l1.426-2.302-5.363-5.363-2.303 1.425c-1.056-.586-2.172-1.049-3.332-1.381l-.621-2.635h-7.584l-.62 2.634c-1.16.333-2.276.795-3.332 1.381l-2.303-1.424-5.363 5.363 1.426 2.302c-.586 1.057-1.049 2.173-1.381 3.332l-2.635.62v7.584l2.635.62c.332 1.159.795 2.275 1.381 3.332l-1.426 2.302 5.363 5.363 2.303-1.425c1.056.586 2.172 1.049 3.332 1.381l.62 2.635h7.584l.62-2.634c.54-.155 1.068-.344 1.588-.555v24.189c0 2.757 2.243 5 5 5h28c2.757 0 5-2.243 5-5v-40c0-2.757-2.243-5-5-5zm-27 19.456 3.41-3.41-1.267-2.046h23.857v34h-26zm26-7.456h-23.189c.211-.52.4-1.048.555-1.588l2.634-.62v-3.792h20zm-34.662 7.582-.595.146-.535 2.272h-4.416l-.535-2.272-.595-.146c-1.377-.337-2.69-.882-3.904-1.619l-.523-.318-1.986 1.229-3.123-3.123 1.229-1.986-.318-.524c-.736-1.215-1.281-2.528-1.617-3.904l-.146-.595-2.274-.534v-4.416l2.273-.535.146-.595c.336-1.375.881-2.689 1.617-3.904l.318-.524-1.229-1.986 3.123-3.123 1.986 1.229.523-.318c1.214-.737 2.527-1.281 3.904-1.619l.595-.146.536-2.271h4.416l.535 2.272.595.146c1.377.337 2.69.882 3.904 1.619l.523.318 1.986-1.229 3.123 3.123-1.229 1.986.318.524c.736 1.215 1.281 2.528 1.617 3.904l.146.595 2.274.534v4.416l-2.273.535-.146.595c-.336 1.375-.881 2.689-1.617 3.904l-.318.524 1.229 1.986-1.289 1.289h-1.586v1.586l-.248.248-1.986-1.229-.523.318c-1.215.736-2.528 1.281-3.905 1.618zm4.662 25.418v-24.857l2 1.237v26.435c-1.161-.413-2-1.513-2-2.815zm34 0c0 1.302-.839 2.402-2 2.816v-41.816c0-1.103-.897-2-2-2h-20v-1.792l-.884-.208h21.884c1.654 0 3 1.346 3 3zm-17-13c-1.654 0-3 1.346-3 3 0 1.302.839 2.402 2 2.816v2.184h2v-2.184c1.161-.414 2-1.514 2-2.816 0-1.654-1.346-3-3-3zm0 4c-.552 0-1-.449-1-1s.448-1 1-1 1 .449 1 1-.448 1-1 1zm6-8v-4c0-3.309-2.691-6-6-6s-6 2.691-6 6v4c-1.654 0-3 1.346-3 3v10c0 1.654 1.346 3 3 3h12c1.654 0 3-1.346 3-3v-10c0-1.654-1.346-3-3-3zm-10-4c0-2.206 1.794-4 4-4s4 1.794 4 4v4h-8zm11 17c0 .551-.448 1-1 1h-12c-.552 0-1-.449-1-1v-10c0-.551.448-1 1-1h12c.552 0 1 .449 1 1zm-20-35c0-6.617-5.383-12-12-12s-12 5.383-12 12 5.383 12 12 12 12-5.383 12-12zm-12 10c-5.514 0-10-4.486-10-10s4.486-10 10-10 10 4.486 10 10-4.486 10-10 10zm0-16c-3.309 0-6 2.691-6 6s2.691 6 6 6 6-2.691 6-6-2.691-6-6-6zm0 10c-2.206 0-4-1.794-4-4s1.794-4 4-4 4 1.794 4 4-1.794 4-4 4zm34 0h-2v-2h2zm-4 0h-2v-2h2zm-6 0v-2h2v2zm-36 25c0 1.654 1.346 3 3 3h4.184c.414 1.161 1.514 2 2.816 2 1.654 0 3-1.346 3-3s-1.346-3-3-3c-1.302 0-2.402.839-2.816 2h-4.184c-.552 0-1-.449-1-1v-4h-2zm10 1c.552 0 1 .449 1 1s-.448 1-1 1-1-.449-1-1 .448-1 1-1zm-10-9h2v2h-2zm2-2h-2v-2h2zm-6 16c0 2.757 2.243 5 5 5h9.184c.414 1.161 1.514 2 2.816 2 1.654 0 3-1.346 3-3s-1.346-3-3-3c-1.302 0-2.402.839-2.816 2h-9.184c-1.654 0-3-1.346-3-3v-6h-2zm17 3c.552 0 1 .449 1 1s-.448 1-1 1-1-.449-1-1 .448-1 1-1zm-17-13h2v2h-2zm0-4h2v2h-2zm2-2h-2v-2h2zm50-9v2h-2v-2zm-2 4h2v2h-2zm0 4h2v2h-2z" fill="url(#SVGID_1_)"/></svg>